<?xml version="1.0" encoding="iso-8859-1"?>
<!-- Uploaded to: SVG Repo, www.svgrepo.com, Generator: SVG Repo Mixer Tools -->
<svg height="800px" width="800px" version="1.1" id="Layer_1" xmlns="http://www.w3.org/2000/svg" xmlns:xlink="http://www.w3.org/1999/xlink" 
	 viewBox="0 0 508.4 508.4" xml:space="preserve">
<g>
	<path style="fill:#ACD9EA;" d="M491.6,37.4L256,228.2c-0.4,0.4-0.8,0.4-1.2,0.4s-0.8,0-1.2-0.4L17.6,37.4
		C10.8,44.2,6.4,53.8,6.4,64.2v269.6c0,10.4,4.4,19.6,11.2,26.8L195.2,217c0.8-0.8,2-0.4,2.8,0.4s0.4,2-0.4,2.8L20.4,364.6
		c6.4,5.2,14.8,9.6,23.6,9.6h420.8c8.8,0,17.2-4.4,23.6-9.6l-177.2-144c-0.8-0.8-0.8-2.4-0.4-3.2c0.8-0.8,2-1.2,2.8-0.4l177.6,143.6
		c6.8-6.8,10.8-16.4,10.8-26.8v-270C502.4,53.4,498.4,44.2,491.6,37.4z"/>
	<path style="fill:#ACD9EA;" d="M254.4,224.2L488.4,35v-0.4c-6.4-5.2-14.8-8.8-23.6-8.8H44c-8.8,0-17.2,3.2-23.6,8.8l0,0
		L254.4,224.2z"/>
</g>
<path style="fill:#CDEEF9;" d="M254.4,224.2L488.4,35v-0.4c-6.4-5.2-14.8-8.8-23.6-8.8H432L254.8,171L77.2,25.8H44.8
	c-8.8,0-17.2,3.2-23.6,8.8l0,0L254.4,224.2z"/>
<circle style="fill:#FFC52F;" cx="254.8" cy="373.4" r="108.8"/>
<path style="fill:#F4EFEF;" d="M312.4,357.4c-0.8-2.4-3.6-4-7.6-4.4l-29.2-4c-0.8,0-1.2-0.4-1.6-1.2l-13.2-26.4c-2-3.6-4.4-6-6.8-6
	c-2.4,0-4.8,2-6.8,6L234,347.8c-0.4,0.4-0.8,1.2-1.6,1.2l-29.2,4.4c-4,0.8-6.8,2.4-7.6,4.4c-0.8,2.4,0.4,5.2,3.6,8l0,0l0,0l8,7.6
	l13.2,12.8c0.4,0.4,0.8,1.2,0.4,1.6L216,417c-0.8,3.6,0,6.4,1.2,8c1.6,2,5.2,2,9.6-0.4l26-14c0.4-0.4,1.2-0.4,2,0l26.4,13.6
	c4.4,2,8,2.4,9.6,0c1.2-1.6,1.6-4.4,1.2-8l-5.2-29.2c0-0.8,0-1.2,0.4-1.6l13.2-12.8l8-8C311.6,362.6,313.2,359.4,312.4,357.4z"/>
<path d="M464.8,379.8h-98.4c-2.4,0-4-1.6-4-4s1.6-4,4-4h98.4c18.8,0,35.6-17.6,35.6-38v-270c0-20-16-36-35.6-36H44
	c-19.6,0-36,16.4-36,36v270c0,20.4,16.8,38,36,38h98c2.4,0,4,1.6,4,4s-1.6,4-4,4H44c-23.2,0-44-21.6-44-46v-270c0-24,20-44,44-44
	h420.8c24,0,43.6,19.6,43.6,44v270C508.4,358.6,488.4,379.8,464.8,379.8z"/>
<path d="M17.6,367c-1.2,0-2.4-0.4-3.2-1.6c-1.2-1.6-1.2-4.4,0.4-5.6L193.6,215c1.6-1.2,4.4-1.2,5.6,0.4c1.2,1.6,1.2,4.4-0.4,5.6
	L20,365.8C19.2,366.6,18.4,367,17.6,367z"/>
<path d="M490.4,365.8c-0.8,0-1.6-0.4-2.4-0.8L310.4,221.4c-1.6-1.2-2-4-0.4-5.6c1.2-1.6,4-2,5.6-0.4L493.2,359c1.6,1.2,2,4,0.4,5.6
	C492.8,365.4,491.6,365.8,490.4,365.8z"/>
<path d="M254.4,230.6c-0.8,0-1.6-0.4-2.4-0.8L14.8,37.8c-1.6-1.2-2-4-0.4-5.6c1.2-1.6,4-2,5.6-0.4l234.4,190l234.4-190
	c1.6-1.2,4.4-1.2,5.6,0.4s1.2,4.4-0.4,5.6l-237.2,192C256.4,230.2,255.6,230.6,254.4,230.6z"/>
<path d="M254.4,175.8c-0.8,0-1.6-0.4-2.4-0.8L70,27.8c-1.6-1.2-2-4-0.4-5.6c1.2-1.6,4-2,5.6-0.4L254.8,167l22-17.6
	c1.6-1.2,4.4-1.2,5.6,0.4c1.2,1.6,1.2,4.4-0.4,5.6L257.6,175C256.4,175.4,255.6,175.8,254.4,175.8z"/>
<path d="M310,131c-1.2,0-2.4-0.4-3.2-1.6c-1.2-1.6-1.2-4.4,0.4-5.6L434,21.4c1.6-1.2,4.4-1.2,5.6,0.4c1.2,1.6,1.2,4.4-0.4,5.6
	L312.4,129.8C311.6,130.6,310.8,131,310,131z"/>
<path d="M254.4,488.6c-63.2,0-114.8-51.6-114.8-114.8c0-63.2,51.6-114.8,114.8-114.8c22,0,43.6,6.4,62,18.4c2,1.2,2.4,3.6,1.2,5.6
	s-3.6,2.4-5.6,1.2c-17.2-11.2-37.2-16.8-57.6-16.8c-58.8,0-106.8,48-106.8,106.8S195.6,481,254.4,481s106.8-48,106.8-106.8
	c0-23.2-7.2-45.2-21.2-63.6c-1.2-1.6-0.8-4.4,0.8-5.6s4.4-0.8,5.6,0.8c14.8,20,22.8,43.6,22.8,68.4C369.6,437,318,488.6,254.4,488.6
	z"/>
<path d="M221.2,433c-3.2,0-5.2-1.2-6.4-2c-2.4-1.6-6-5.6-4.4-14.4l4.4-27.2l-20.4-20L194,369c-5.2-5.6-4.8-10.8-4-13.2
	c0.8-2.8,3.6-7.2,12.4-8.8l27.2-4l12-24.8c4-8,9.2-9.2,12-9.2l0,0c2.8,0,8,1.2,12,9.2L278,343l27.2,4c8.8,1.2,11.6,6,12.4,8.4
	s1.2,8-5.2,14.4L292.8,389l4.8,27.2c1.6,8.8-2,12.8-4.4,14.4s-7.2,3.6-15.2-0.4l-24.4-12.8l-24.4,12.8
	C226.4,432.2,223.6,433,221.2,433z M200.8,364.6L222,385c0.8,0.8,1.2,2.4,1.2,3.6l-4.8,29.2c-0.4,3.2,0,6,1.2,6.8s4,0.4,6.8-1.2
	l26-14c1.2-0.8,2.4-0.8,3.6,0l26.4,13.6c2.8,1.6,5.6,2,6.8,1.2s1.6-3.6,1.2-6.8l-5.2-29.2c-0.4-1.2,0-2.8,1.2-3.6l21.2-20.8
	c2.4-2.4,3.6-4.8,3.2-6c-0.4-1.6-2.8-2.8-6-3.2l-29.2-4c-1.2,0-2.4-1.2-3.2-2l-13.2-26.4c-1.6-2.8-3.2-4.8-4.8-4.8l0,0
	c-1.6,0-3.2,2-4.8,4.8l-13.2,26.4c-0.4,1.2-1.6,2-3.2,2l-7.2,1.2l0,0l-22,3.2c-3.2,0.4-5.6,1.6-6,3.2S198.4,362.2,200.8,364.6
	C200.8,364.2,200.8,364.6,200.8,364.6z"/>
</svg>