<?xml version="1.0" encoding="iso-8859-1"?>
<!-- Uploaded to: SVG Repo, www.svgrepo.com, Generator: SVG Repo Mixer Tools -->
<svg height="800px" width="800px" version="1.1" id="Layer_1" xmlns="http://www.w3.org/2000/svg" xmlns:xlink="http://www.w3.org/1999/xlink" 
	 viewBox="0 0 508.025 508.025" xml:space="preserve">
<path style="fill:#54B265;" d="M345.625,362.412l6.8,6.8c0.8,0.8,0.8,2,0,2.8c-0.4,0.4-0.8,0.4-1.6,0.4c-0.4,0-1.2,0-1.6-0.4
	l-5.6-5.6l-31.2,31.2c-0.8,0.8-2,0.8-2.8,0c-62.4-48.8-152.4-138.8-200.8-201.2c-0.8-0.8-0.4-2,0-2.8l30.8-30.8l-44.4-44.4
	c-0.8-0.8-0.8-2,0-2.8s2-0.8,2.8,0l45.6,45.6l13.2,13.2l43.2-43.2l-125.2-125.2l-43.2,43.2l11.2,11.2l1.2,1.2l7.6,7.6
	c0.8,0.8,0.8,2,0,2.8c-0.4,0.4-0.8,0.4-1.6,0.4c-0.4,0-1.2,0-1.6-0.4l-5.6-5.6c-15.2,25.2-32.8,54.4-34,55.2c-5.2,5.2-6,12.8-2,18.8
	c83.2,131.2,227.6,275.6,358.8,358.8c6,3.6,14,2.8,18.8-2c0.8-0.8,29.6-18.8,54.4-34.4l-45.6-45.6c-0.8-0.8-0.8-2,0-2.8s2-0.8,2.8,0
	l47.6,47.6l0,0l12.4,12.4l43.2-43.2l-125.2-125.2l-43.2,43.2l12.4,12.4l0,0L345.625,362.412z"/>
<g>
	<path style="fill:#E8E3E3;" d="M109.625,34.812l62.8,62.8C170.425,63.612,143.225,36.412,109.625,34.812z"/>
	<path style="fill:#E8E3E3;" d="M408.825,334.012l62,62C468.825,362.812,442.025,336.412,408.825,334.012z"/>
</g>
<path d="M375.225,508.012c-4,0-8-1.2-11.2-3.2c-132-83.6-276.8-228.8-360.8-360.8c-5.2-8.4-4-19.2,2.8-26c2-3.2,20-32.8,32.8-53.6
	l-11.6-11.6c-1.6-1.6-1.6-4,0-5.6l46-46c1.6-1.6,4-1.6,5.6,0l128,128c0.8,0.8,1.2,1.6,1.2,2.8s-0.4,2-1.2,2.8l-46,46
	c-1.6,1.6-4,1.6-5.6,0l-11.6-11.6l-26.8,27.2c48,60.8,134,146.8,194.8,195.2l27.2-27.2l-11.6-11.6c-0.8-0.8-1.2-1.6-1.2-2.8
	c0-1.2,0.4-2,1.2-2.8l46-46c1.6-1.6,4-1.6,5.6,0l128,128c1.6,1.6,1.6,4,0,5.6l-46,46c-1.6,1.6-4,1.6-5.6,0l-11.6-11.6
	c-20.8,13.2-50.4,31.6-53.2,33.6C386.025,506.012,380.425,508.012,375.225,508.012z M35.625,50.012l10.8,10.8
	c1.2,1.2,1.6,3.2,0.4,4.8c-34.4,56.4-35.2,57.2-35.6,57.6c-4.4,4.4-5.2,11.2-2,16.4c83.2,131.2,227.2,274.8,358,358
	c5.2,3.2,12,2.4,16.4-2c0.4-0.4,1.2-1.2,57.2-36c1.6-0.8,3.6-0.8,4.8,0.4l10.8,10.8l40-40l-122.4-122.4l-40,40l11.6,11.6
	c0.8,0.8,1.2,1.6,1.2,2.8s-0.4,2-1.2,2.8l-32.4,32.4c-1.6,1.6-3.6,1.6-5.2,0.4c-62.4-48.8-152.8-139.2-201.2-201.6
	c-1.2-1.6-1.2-4,0.4-5.2l32.4-32.4c1.6-1.6,4-1.6,5.6,0l11.6,11.6l40-40l-122.4-122.4L35.625,50.012z"/>
<path d="M143.625,167.212c-1.2,0-2-0.4-2.8-1.2l-45.6-45.6c-1.6-1.6-1.6-4,0-5.6s4-1.6,5.6,0l45.6,45.6c1.6,1.6,1.6,4,0,5.6
	C145.625,166.812,144.425,167.212,143.625,167.212z"/>
<path d="M51.225,75.212c-1.2,0-2-0.4-2.8-1.2l-8.8-8.8c-1.6-1.6-1.6-4,0-5.6s4-1.6,5.6,0l8.8,8.8c1.6,1.6,1.6,4,0,5.6
	C53.625,74.812,52.425,75.212,51.225,75.212z"/>
<path d="M350.825,374.812c-1.2,0-2-0.4-2.8-1.2l-7.6-7.6c-1.6-1.6-1.6-4,0-5.6s4-1.6,5.6,0l7.6,7.6c1.6,1.6,1.6,4,0,5.6
	C353.225,374.412,352.025,374.812,350.825,374.812z"/>
<path d="M443.625,467.612c-1.2,0-2-0.4-2.8-1.2l-47.6-47.6c-1.6-1.6-1.6-4,0-5.6s4-1.6,5.6,0l47.6,47.6c1.6,1.6,1.6,4,0,5.6
	C445.625,467.212,444.825,467.612,443.625,467.612z"/>
<path d="M174.425,104.812c-2.4,0-4-1.6-4-4c0-35.6-28.8-64.4-64.4-64.4c-2.4,0-4-1.6-4-4s1.6-4,4-4c40,0,72.4,32.4,72.4,72.4
	C178.425,103.212,176.825,104.812,174.425,104.812z"/>
<path d="M473.225,404.412c-2.4,0-4-1.6-4-4c0-35.6-28.8-64.4-64.4-64.4c-2.4,0-4-1.6-4-4s1.6-4,4-4c40,0,72.4,32.4,72.4,72.4
	C477.225,402.412,475.225,404.412,473.225,404.412z"/>
</svg>